<svg width="305" height="440" viewBox="0 0 305 440" fill="none" xmlns="http://www.w3.org/2000/svg">
<path d="M282.5 21.5H276V16C276 11.6 279.333 8.83333 281 8C283.4 1.2 288.333 1.83333 290.5 3C294.9 0.2 297.333 1.83333 298 3C302.4 7 301.167 12.3333 300 14.5C301.5 15.1667 304.3 17.5 303.5 21.5C302.7 25.5 298.167 24.8333 296 24L292.5 21.5H287H282.5Z" fill="#27F614"/>
<path d="M175 175.5C158.6 180.3 135.833 173.5 126.5 169.5C126.167 171.833 125.6 177.1 126 179.5L122 184L118.5 183L117 190V197.5H111L110.5 204L118.5 208.5L117 216.5L119.5 221.5L117 225.5V229.5L115 234L114 238.5L96 254.5L91.5 255.5L89 257.5L86 262.5L90.5 264V267.5L89 271.5C86.8333 270.333 81.7 268.1 78.5 268.5C73.3333 265.167 62.3 257.8 57.5 259L52 252H47C44.8333 251.833 38.3 254.8 39.5 260L42.5 264L40 270.5V274.5L36.5 279C36.6667 281.333 37.2 286.3 38 287.5C40.3333 290.667 44.3 298.1 41.5 302.5C46 306.667 51.5 317.6 45.5 328L53 334L57.5 335L62.5 333C63.3333 334.5 63.9 339.1 63.5 343.5L68 352L82.4998 360.5L96.5 356.5L107.5 360.5L117 365L130.5 360.5L144 367L140.5 378.5L133.405 383.5L126.5 394L111 399L96.5 403.5L91.5 413.605L82.4998 419L94 431H116C122.833 433.5 134.2 443.5 135 437.5C135.234 435.742 131.796 436.146 133.405 434.182L133.497 434.168C135.706 433.833 137.249 432.886 137.5 431L139.852 426C139.352 428.5 139.39 432.205 140.5 431.5C141.668 430.758 144 429 144 425C144 424.139 144.001 423.205 144.043 422.314C146.031 420.981 148.063 420.023 149.5 419.5C151.549 420.711 153.765 421.475 156.02 421.908C160.384 423.754 165.19 425.717 168.5 425.5C172.214 425.256 172.935 420.426 175 419.5L168.5 403.5L179.5 388L172.5 379.5L179.5 367L192.5 360.5L182.581 347.5L188 336.5L206.5 327.968L199.5 314L185.5 311L182.581 292L195.5 287.5L185.5 282.5H166.5L160 287.5L147 286L135 282.5L144.043 274.5L152.5 267.5V260V252L156.02 244.5L160 236.5H166.5L168.5 234L172.5 229H182.581L188 232H199.5L211 229V224L206.5 219.5V214L199.5 208V202.5L195.5 195C174.3 187 177.5 178.5 175 175.5Z" fill="#BABC65"/>
<path d="M58.4998 419H82.4998V408.5L76.5 396L71.5 393.5L68 382L71.5 373L64.5 372L63.5 363.5L60 367H55L51 363.5L48.5 366.5L45.5 363.5L39.5 367L40.5 370L36.5 372L39 378L36.5 383L37 387H32.5V383.5L30.5 380L28 382L27.5 387.5C24.1667 389.333 16.3 391.9 9.5 387.5C6.66667 390.667 0.9 398.2 0.5 403L1.5 413.105C6.86288 415.228 10.0967 417.457 11.4998 419L28.4998 415.5L43.9998 425L58.4998 419Z" fill="#BABC65"/>
<path d="M82.4998 419L94 431H116C122.833 433.5 134.2 443.5 135 437.5C135.234 435.742 131.796 436.146 133.405 434.182M82.4998 419H58.4998L43.9998 425L28.4998 415.5L11.4998 419C10.0967 417.457 6.86288 415.228 1.5 413.105L0.5 403C0.9 398.2 6.66667 390.667 9.5 387.5C16.3 391.9 24.1667 389.333 27.5 387.5L28 382L30.5 380L32.5 383.5V387H37L36.5 383L39 378L36.5 372L40.5 370L39.5 367L45.5 363.5L48.5 366.5L51 363.5L55 367H60L63.5 363.5M82.4998 419L91.5 413.605L96.5 403.5L111 399L126.5 394L133.405 383.5L140.5 378.5L144 367L130.5 360.5L117 365L107.5 360.5L96.5 356.5L82.4998 360.5L68 352M82.4998 419V408.5L76.5 396L71.5 393.5L68 382L71.5 373L64.5 372L63.5 363.5M133.405 434.182C133.411 434.181 133.491 434.169 133.497 434.168M133.405 434.182L133.497 434.168M68 352L63.5 343.5C63.9 339.1 63.3333 334.5 62.5 333L57.5 335L53 334L45.5 328C51.5 317.6 46 306.667 41.5 302.5C44.3 298.1 40.3333 290.667 38 287.5C37.2 286.3 36.6667 281.333 36.5 279L40 274.5V270.5L42.5 264L39.5 260C38.3 254.8 44.8333 251.833 47 252H52L57.5 259C62.3 257.8 73.3333 265.167 78.5 268.5C81.7 268.1 86.8333 270.333 89 271.5L90.5 267.5V264L86 262.5L89 257.5L91.5 255.5L96 254.5L114 238.5L115 234L117 229.5V225.5L119.5 221.5L117 216.5L118.5 208.5L110.5 204L111 197.5H117V190L118.5 183L122 184L126 179.5C125.6 177.1 126.167 171.833 126.5 169.5C135.833 173.5 158.6 180.3 175 175.5C177.5 178.5 174.3 187 195.5 195L199.5 202.5V208L206.5 214V219.5L211 224V229L199.5 232M68 352L63.5 363.5M133.497 434.168C135.706 433.833 137.249 432.886 137.5 431L139.852 426C139.352 428.5 139.39 432.205 140.5 431.5C141.668 430.758 144 429 144 425C144 424.139 144.001 423.205 144.043 422.314C146.031 420.981 148.063 420.023 149.5 419.5C151.549 420.711 153.765 421.475 156.02 421.908C160.384 423.754 165.19 425.717 168.5 425.5C172.214 425.256 172.935 420.426 175 419.5L168.5 403.5L179.5 388L172.5 379.5L179.5 367L192.5 360.5L182.581 347.5L188 336.5L206.5 327.968L199.5 314L185.5 311L182.581 292L195.5 287.5L185.5 282.5M199.5 232L195.5 244.5L182.581 250.5V262.5L175 271.5L185.5 282.5M199.5 232H188L182.581 229H172.5L168.5 234L166.5 236.5H160L156.02 244.5L152.5 252V260V267.5L144.043 274.5L135 282.5L147 286L160 287.5L166.5 282.5H185.5M276 21.5H282.5H287H292.5L296 24C298.167 24.8333 302.7 25.5 303.5 21.5C304.3 17.5 301.5 15.1667 300 14.5C301.167 12.3333 302.4 7 298 3C297.333 1.83333 294.9 0.2 290.5 3C288.333 1.83333 283.4 1.2 281 8C279.333 8.83333 276 11.6 276 16V21.5Z" stroke="white"/>
</svg>
