<svg width="301" height="252" viewBox="0 0 301 252" fill="none" xmlns="http://www.w3.org/2000/svg">
<path d="M233 229C229 229 225.333 225.667 224 224C224.667 222.5 226.6 219.9 229 221.5C232 223.5 240 221.5 241.5 221.5C243 221.5 245.5 229 243 229H233Z" fill="#32D723" fill-opacity="0.77"/>
<path d="M297.5 239.5C289.5 241.1 281.167 233.167 278 229V226C282 217.2 289.333 221 292.5 224C297.3 227.6 297.833 230.833 297.5 232C301.9 238.4 299.333 239.667 297.5 239.5Z" fill="#32D723" fill-opacity="0.77"/>
<path d="M7.5 21.5H1V16C1 11.6 4.33333 8.83333 6 8C8.4 1.2 13.3333 1.83333 15.5 3C19.9 0.2 22.3333 1.83333 23 3C27.4 7 26.1667 12.3333 25 14.5C26.5 15.1667 29.3 17.5 28.5 21.5C27.7 25.5 23.1667 24.8333 21 24L17.5 21.5H12H7.5Z" fill="#32D723" fill-opacity="0.77"/>
<path d="M17.5 221.5C16.3333 219.667 15.1 215.6 19.5 214C23.9 212.4 26 213.333 26.5 214C29 214.167 34.6 212.1 37 202.5C39.4 192.9 42.3333 191.5 43.5 192L63 190C68.6667 189.667 80.9 189.6 84.5 192C88.1 194.4 106 193 114.5 192H149.5H180.5L209 190C212 188.667 219.6 186.4 226 188C234 190 243 198.5 245.5 197.5C247.5 196.7 251.333 204.167 253 208C257.333 208.833 264.3 211.2 257.5 214C255 215.333 248.3 217.4 241.5 215C237.833 215.167 229.6 215.9 226 217.5C222.833 217.167 216.5 219 216.5 229C215.167 231.667 210.2 236 201 232C194.167 230 178.5 227.2 170.5 232C167.167 233.333 160.2 238.9 159 250.5C158 250.833 156 250.1 156 244.5C155.167 246.167 152.1 249 146.5 247C139.333 245.167 121.9 242.6 109.5 247C106.167 247.833 96.5 249 84.5 247C83 245.333 76.6 242.5 63 244.5C57.3333 240.333 41.5 233.5 23.5 239.5C20.8333 238.5 16.3 235 19.5 229C20.5 227.167 21.5 223.1 17.5 221.5Z" fill="#32D723" fill-opacity="0.77"/>
<path d="M233 229C229 229 225.333 225.667 224 224C224.667 222.5 226.6 219.9 229 221.5C232 223.5 240 221.5 241.5 221.5C243 221.5 245.5 229 243 229M233 229C238 229 240.5 229 243 229M233 229H243M17.5 221.5C16.3333 219.667 15.1 215.6 19.5 214C23.9 212.4 26 213.333 26.5 214C29 214.167 34.6 212.1 37 202.5C39.4 192.9 42.3333 191.5 43.5 192L63 190C68.6667 189.667 80.9 189.6 84.5 192C88.1 194.4 106 193 114.5 192H149.5H180.5L209 190C212 188.667 219.6 186.4 226 188C234 190 243 198.5 245.5 197.5C247.5 196.7 251.333 204.167 253 208C257.333 208.833 264.3 211.2 257.5 214C255 215.333 248.3 217.4 241.5 215C237.833 215.167 229.6 215.9 226 217.5C222.833 217.167 216.5 219 216.5 229C215.167 231.667 210.2 236 201 232C194.167 230 178.5 227.2 170.5 232C167.167 233.333 160.2 238.9 159 250.5C158 250.833 156 250.1 156 244.5C155.167 246.167 152.1 249 146.5 247C139.333 245.167 121.9 242.6 109.5 247C106.167 247.833 96.5 249 84.5 247C83 245.333 76.6 242.5 63 244.5C57.3333 240.333 41.5 233.5 23.5 239.5C20.8333 238.5 16.3 235 19.5 229C20.5 227.167 21.5 223.1 17.5 221.5ZM278 229C281.167 233.167 289.5 241.1 297.5 239.5C299.333 239.667 301.9 238.4 297.5 232C297.833 230.833 297.3 227.6 292.5 224C289.333 221 282 217.2 278 226V229ZM1 21.5H7.5H12H17.5L21 24C23.1667 24.8333 27.7 25.5 28.5 21.5C29.3 17.5 26.5 15.1667 25 14.5C26.1667 12.3333 27.4 7 23 3C22.3333 1.83333 19.9 0.2 15.5 3C13.3333 1.83333 8.4 1.2 6 8C4.33333 8.83333 1 11.6 1 16V21.5Z" stroke="white"/>
</svg>
