<svg width="163" height="268" viewBox="0 0 163 268" fill="none" xmlns="http://www.w3.org/2000/svg">
<path d="M89.5 12C69.9 -4 40.6667 5.33334 28.5 12L32.5 19.5V25.5L39.5 31V36.5L43.5 40.5V46L32.5 49L28.5 61.5L15.5813 67.5V79.5L8 88.5L18.5 99.5L28.5 104.5L15.5813 109L18.5 128.5L32.5 131L39.5 144.442L22 152L15.5813 164L26 177L13.5 184L6 195.5L13.5 205L1.5 220.5L8 236.5C11.4868 234.937 13.3256 240.833 15.5813 244.803C16.4524 246.336 17.3857 247.582 18.5 248C22.5 249.5 54 248 54 248C67.6 248 77.3334 256 80.5 260C83.4756 261.653 88.0243 260.56 93.0494 260C95.6237 259.713 98.323 259.566 101 260C104.049 260.494 106.453 261.496 108.713 262.571C112.326 264.289 115.571 266.192 120.5 266.5L117.5 254L114 236.5L117.5 223L114 214.5L116 199.5L117.5 191L123 185.5V179.5L127.5 169C123.833 167.667 116 164 114 160C111.5 155 117 152 120.5 149.5C124 147 120.5 142 124.5 136.5C128.5 131 134.5 135 137.802 135C141.104 135 149.5 136.5 151.5 135C153.1 133.8 159.167 130.167 162 128.5C152.8 121.7 154.5 112.667 156.5 109V86.5C155.167 82.3333 151 72 145 64C139 56 130.833 60.6667 127.5 64L120.5 49V36.5C118.667 31.6667 114.8 20 114 12C113 2 103 -2 101 5C99.4 10.6 92.6667 12 89.5 12Z" fill="#32D723" fill-opacity="0.5" stroke="white"/>
</svg>
