<svg width="112" height="63" viewBox="0 0 112 63" fill="none" xmlns="http://www.w3.org/2000/svg">
<path d="M5.5 2.5H7.5L8.5 1L10.5 2.5H32L33.5 4.5H34.5H37.5L39.5 6H41.5L46 7L47.5 9.5H49L51 11.5H54L55.5 12.5L57 15L58 18.5L57 22L55.5 23L52.5 22L49 19.5H47.5L44 17.5L41.5 16.5C40.6667 15.8333 38.7 14.9 37.5 16.5L35.5 18.5H32C32.3333 17.5 32.6 15.2 31 14H27L22 17.5L25 18.5L28.5 21L30 28H22L20.5 27L20 25.5L19 24.5L19.5 23L20 22L18 21.5H16.5L17 23.5L16.5 25H15V26.5L16 27.5L15.5 29L14.5 30L12 29L11.5 27L9.5 26.5L9 23.5L10.5 20.5L9.5 19L6 17.5L2.5 19.5L0.5 18.5V12L2.5 11.5L4 9.5L5.5 10.5L6.5 9.5L7.5 7L9.5 4.5L5.5 2.5Z" fill="#D75323"/>
<path d="M58.5 22.5L60 23.5L61 25.5L61.5 27L64 28L66.5 29L68.5 30L69.5 29H72L73 30L74.5 30.5L75.5 29V27L73.5 26L72.5 24H70.5L68.5 22.5L66.5 21.5L64 21L63.5 19.5H61.5L59.5 21L58.5 22.5Z" fill="#D75323"/>
<path d="M36 26L37.5 27V29L39 29.5L40.5 29L42 30.5L42.5 28.5L41.5 27L40.5 26L39 25H37.5L36 26Z" fill="#D75323"/>
<path d="M51.5 28C49.9 28.4 49.1667 30.1667 49 31C48.7291 31.8 50.5538 33.3333 51.5 34L54 33L56 31L54 29C53.5147 28.5147 53.6182 27.7594 53.8864 27.0915C53.5949 27.2954 52.861 27.6597 51.5 28Z" fill="#D75323"/>
<path d="M63.5 34H66H69V37V38.5L66.5 39L64 37.5V36L63.5 34Z" fill="#D75323"/>
<path d="M71.5 37L72.5 36H74L74.5 37.5L75.5 38L75 39L73.5 40L71.5 39V37Z" fill="#D75323"/>
<path d="M89.5 50H87.5L86 52.5L85.5 55L88 56L91 57.5L94 58L95.5 59.5L97 61L100 62L103.5 61.5L105 60.5L108 60L109 59L110.5 56L109.5 53L110 51L110.5 48.5L109.5 47.5L108.5 49L106.5 48L106 49.5V53L104.5 54L103 53.5H100V52H98.5L97 51L95 51.5C94.1667 51.3333 92.7 50.6 93.5 49L94 47L92.5 46L91 46.5V47.5L90.5 50H89.5Z" fill="#D75323"/>
<path d="M54 29C54.8 29.8 55.6667 30.6667 56 31M54 29L56 31M54 29C53.5147 28.5147 53.6182 27.7594 53.8864 27.0915M56 31L54 33L51.5 34C50.5538 33.3333 48.7291 31.8 49 31C49.1667 30.1667 49.9 28.4 51.5 28C52.861 27.6597 53.5949 27.2954 53.8864 27.0915M53.8864 27.0915C54.0603 26.6585 54.3033 26.2622 54.5 26L54 27C53.9751 27.0249 53.9376 27.0557 53.8864 27.0915ZM5.5 2.5H7.5L8.5 1L10.5 2.5H32L33.5 4.5H34.5H37.5L39.5 6H41.5L46 7L47.5 9.5H49L51 11.5H54L55.5 12.5L57 15L58 18.5L57 22L55.5 23L52.5 22L49 19.5H47.5L44 17.5L41.5 16.5C40.6667 15.8333 38.7 14.9 37.5 16.5L35.5 18.5H32C32.3333 17.5 32.6 15.2 31 14H27L22 17.5L25 18.5L28.5 21L30 28H22L20.5 27L20 25.5L19 24.5L19.5 23L20 22L18 21.5H16.5L17 23.5L16.5 25H15V26.5L16 27.5L15.5 29L14.5 30L12 29L11.5 27L9.5 26.5L9 23.5L10.5 20.5L9.5 19L6 17.5L2.5 19.5L0.5 18.5V12L2.5 11.5L4 9.5L5.5 10.5L6.5 9.5L7.5 7L9.5 4.5L5.5 2.5ZM58.5 22.5L60 23.5L61 25.5L61.5 27L64 28L66.5 29L68.5 30L69.5 29H72L73 30L74.5 30.5L75.5 29V27L73.5 26L72.5 24H70.5L68.5 22.5L66.5 21.5L64 21L63.5 19.5H61.5L59.5 21L58.5 22.5ZM36 26L37.5 27V29L39 29.5L40.5 29L42 30.5L42.5 28.5L41.5 27L40.5 26L39 25H37.5L36 26ZM63.5 34H66H69V37V38.5L66.5 39L64 37.5V36L63.5 34ZM71.5 37L72.5 36H74L74.5 37.5L75.5 38L75 39L73.5 40L71.5 39V37ZM89.5 50H87.5L86 52.5L85.5 55L88 56L91 57.5L94 58L95.5 59.5L97 61L100 62L103.5 61.5L105 60.5L108 60L109 59L110.5 56L109.5 53L110 51L110.5 48.5L109.5 47.5L108.5 49L106.5 48L106 49.5V53L104.5 54L103 53.5H100V52H98.5L97 51L95 51.5C94.1667 51.3333 92.7 50.6 93.5 49L94 47L92.5 46L91 46.5V47.5L90.5 50H89.5Z" stroke="white"/>
</svg>
