<svg width="286" height="66" viewBox="0 0 286 66" fill="none" xmlns="http://www.w3.org/2000/svg">
<path d="M2.49999 35.5C1.33332 33.6667 0.0999885 29.6 4.49999 28C8.89999 26.4 11 27.3333 11.5 28C14 28.1667 19.6 26.1 22 16.5C24.4 6.9 27.3333 5.5 28.5 6L48 4C53.6667 3.66667 65.9 3.6 69.5 6C73.1 8.4 91 7 99.5 6H134.5H165.5L194 4C197 2.66667 204.6 0.400003 211 2C219 4 228 12.5 230.5 11.5C232.5 10.7 236.333 18.1667 238 22C242.333 22.8333 249.3 25.2 242.5 28C240 29.3333 233.3 31.4 226.5 29C222.833 29.1667 214.6 29.9 211 31.5C207.833 31.1667 201.5 33 201.5 43C200.167 45.6667 195.2 50 186 46C179.167 44 163.5 41.2 155.5 46C152.167 47.3333 145.2 52.9 144 64.5C143 64.8333 141 64.1 141 58.5C140.167 60.1667 137.1 63 131.5 61C124.333 59.1667 106.9 56.6 94.5 61C91.1667 61.8333 81.5 63 69.5 61C68 59.3333 61.6 56.5 48 58.5C42.3333 54.3333 26.5 47.5 8.49999 53.5C5.83332 52.5 1.29999 49 4.49999 43C5.49999 41.1667 6.49999 37.1 2.49999 35.5Z" fill="#BB65BC"/>
<path d="M218 43C214 43 210.333 39.6667 209 38C209.667 36.5 211.6 33.9 214 35.5C217 37.5 225 35.5 226.5 35.5C228 35.5 230.5 43 228 43H218Z" fill="#BB65BC"/>
<path d="M282.5 53.5C274.5 55.1 266.167 47.1667 263 43V40C267 31.2 274.333 35 277.5 38C282.3 41.6 282.833 44.8333 282.5 46C286.9 52.4 284.333 53.6667 282.5 53.5Z" fill="#BB65BC"/>
<path d="M2.49999 35.5C1.33332 33.6667 0.0999885 29.6 4.49999 28C8.89999 26.4 11 27.3333 11.5 28C14 28.1667 19.6 26.1 22 16.5C24.4 6.9 27.3333 5.5 28.5 6L48 4C53.6667 3.66667 65.9 3.6 69.5 6C73.1 8.4 91 7 99.5 6H134.5H165.5L194 4C197 2.66667 204.6 0.400003 211 2C219 4 228 12.5 230.5 11.5C232.5 10.7 236.333 18.1667 238 22C242.333 22.8333 249.3 25.2 242.5 28C240 29.3333 233.3 31.4 226.5 29C222.833 29.1667 214.6 29.9 211 31.5C207.833 31.1667 201.5 33 201.5 43C200.167 45.6667 195.2 50 186 46C179.167 44 163.5 41.2 155.5 46C152.167 47.3333 145.2 52.9 144 64.5C143 64.8333 141 64.1 141 58.5C140.167 60.1667 137.1 63 131.5 61C124.333 59.1667 106.9 56.6 94.5 61C91.1667 61.8333 81.5 63 69.5 61C68 59.3333 61.6 56.5 48 58.5C42.3333 54.3333 26.5 47.5 8.49999 53.5C5.83332 52.5 1.29999 49 4.49999 43C5.49999 41.1667 6.49999 37.1 2.49999 35.5Z" stroke="white"/>
<path d="M218 43C214 43 210.333 39.6667 209 38C209.667 36.5 211.6 33.9 214 35.5C217 37.5 225 35.5 226.5 35.5C228 35.5 230.5 43 228 43H218Z" stroke="white"/>
<path d="M282.5 53.5C274.5 55.1 266.167 47.1667 263 43V40C267 31.2 274.333 35 277.5 38C282.3 41.6 282.833 44.8333 282.5 46C286.9 52.4 284.333 53.6667 282.5 53.5Z" stroke="white"/>
</svg>
