<svg width="116" height="451" viewBox="0 0 116 451" fill="none" xmlns="http://www.w3.org/2000/svg">
<path d="M7.5 21.5H1V16C1 11.6 4.33333 8.83333 6 8C8.4 1.2 13.3333 1.83333 15.5 3C19.9 0.2 22.3333 1.83333 23 3C27.4 7 26.1667 12.3333 25 14.5C26.5 15.1667 29.3 17.5 28.5 21.5C27.7 25.5 23.1667 24.8333 21 24L17.5 21.5H12H7.5Z" fill="#32D723" fill-opacity="0.5"/>
<path d="M52 442C57.5 439.5 60 437 60 437C62.2207 434.895 62.46 434.545 64.7086 432.931C77.5765 423.693 90.7497 422.154 102.5 424.409L107 418.5L104.5 410.5L109 403L108 394.5L111.5 390L109 382.5L111.5 377.5V372.5L114.5 366L111.5 362.5L114.5 356.5C109.667 354 99.5 349.6 97.5 352C95.5 354.4 87.3333 354.667 83.5 354.5C81.5 353.667 76.5 351 72.5 347C67.5 342 54 343 48.5 345C43 347 37 347 33 347C29.8 347 22.6667 350.333 19.5 352L15 362.5V368.5L9.5 374L8 382.5L6 397.5L9.5 406L6 419.5L9.5 437L12.5 449.5C19.6491 449.947 24.1468 447.058 29.8018 444.91C31.9617 444.089 34.2903 443.377 37 443C42.8148 442.191 46.5 444.5 52 442Z" fill="#23D7C2"/>
<path d="M37 443C42.8148 442.191 46.5 444.5 52 442C57.5 439.5 60 437 60 437C62.2207 434.895 62.46 434.545 64.7086 432.931C77.5765 423.693 90.7497 422.154 102.5 424.409L107 418.5L104.5 410.5L109 403L108 394.5L111.5 390L109 382.5L111.5 377.5V372.5L114.5 366L111.5 362.5L114.5 356.5C109.667 354 99.5 349.6 97.5 352C95.5 354.4 87.3333 354.667 83.5 354.5C81.5 353.667 76.5 351 72.5 347C67.5 342 54 343 48.5 345C43 347 37 347 33 347C29.8 347 22.6667 350.333 19.5 352L15 362.5V368.5L9.5 374L8 382.5L6 397.5L9.5 406L6 419.5L9.5 437L12.5 449.5C19.6491 449.947 24.1468 447.058 29.8018 444.91M37 443C34.2903 443.377 31.9617 444.089 29.8018 444.91M37 443L29.8018 444.91M1 21.5H7.5H12H17.5L21 24C23.1667 24.8333 27.7 25.5 28.5 21.5C29.3 17.5 26.5 15.1667 25 14.5C26.1667 12.3333 27.4 7 23 3C22.3333 1.83333 19.9 0.2 15.5 3C13.3333 1.83333 8.4 1.2 6 8C4.33333 8.83333 1 11.6 1 16V21.5Z" stroke="white"/>
</svg>
