<svg width="161" height="157" viewBox="0 0 161 157" fill="none" xmlns="http://www.w3.org/2000/svg">
<path fill-rule="evenodd" clip-rule="evenodd" d="M130 125L130.003 125.003C130.036 125.036 130.069 125.068 130.102 125.101C130.067 125.067 130.034 125.034 130 125Z" fill="#32D723" fill-opacity="0.5"/>
<path d="M122.5 69.5C127.167 57.6667 135.2 31.9 130 23.5C127.074 18.7727 132.247 11.768 134.5 6.50001C126.914 8.16668 106.1 10.1 96.5 4.50001C86.9 -1.09999 74.8333 2.16668 70 4.50001C66.1667 7.16668 59.1 15.7 61.5 28.5C63.9 41.3 47.1667 37.8333 38.5 34.5L20.5 44.5L25.0496 56L20.5 68.5L31 76L34 84.1816H20.5L7 81L1.5 87.5L7 109C17 116.6 29.1667 119.167 34 119.5C36.3634 119.5 38.5807 119.588 40.6583 119.749C41.4449 119.725 42.2265 119.653 43 119.5C50 122 48 118.5 53 117.5C54.7065 119.491 54.9569 120.997 54.8556 122.477C54.7788 123.599 54.5 124.707 54.5 126C57.6249 127.082 60.4038 126.093 61.5 125C65.3775 127.035 66.1517 128.945 67 130.5C71.7585 133.255 79.3789 131.841 86.0073 129.499C86.1697 129.577 86.334 129.657 86.5 129.74C88.263 129 94.954 132.282 96.5 131.5C97.9778 130.752 97.8303 126.601 98.5729 125.028C98.6899 124.78 98.829 124.596 99 124.5C102.626 123.694 105.159 124.836 107.933 125.754C108.602 125.975 109.285 126.183 110 126.348C117.41 129.698 120.954 134.401 121.467 138.717C121.819 141.682 120.74 144.464 118.5 146.5C118.905 147.513 119.151 148.261 119.431 148.834C119.841 149.674 120.326 150.135 121.5 150.5C125.975 151.89 130.828 152.804 135.353 153.402C143.525 155.59 144.861 155.538 144 155C152.112 157.453 156.391 155.478 158.42 151.868C160.108 150.216 160.353 147.961 159.982 145.381C160.064 142.621 159.619 139.787 159 137.5C158.424 137.346 157.795 137.173 157.124 136.982C152.303 134.119 146.638 130.586 141 128.5C136.476 128.911 133.399 127.725 131.259 126.1C130.855 125.794 130.485 125.472 130.144 125.142L130.105 125.103L130.102 125.101C130.069 125.068 130.036 125.036 130.003 125.003L130 125C127.369 122.369 128.683 114.495 127.5 109.5C126.76 106.374 126.805 106.7 126.5 104C125.992 99.5 123.5 100.5 122.5 99.5V69.5Z" fill="#D723AA" fill-opacity="0.5"/>
<path d="M130 125C127.369 122.369 128.683 114.495 127.5 109.5C126.76 106.374 126.805 106.7 126.5 104C125.992 99.5 123.5 100.5 122.5 99.5V69.5C127.167 57.6667 135.2 31.9 130 23.5C127.074 18.7727 132.247 11.768 134.5 6.50001C126.914 8.16668 106.1 10.1 96.5 4.50001C86.9 -1.09999 74.8333 2.16668 70 4.50001C66.1667 7.16668 59.1 15.7 61.5 28.5C63.9 41.3 47.1667 37.8333 38.5 34.5L20.5 44.5L25.0496 56L20.5 68.5L31 76L34 84.1816H20.5L7 81L1.5 87.5L7 109C17 116.6 29.1667 119.167 34 119.5M130 125L130.003 125.003C130.036 125.036 130.069 125.068 130.102 125.101M130 125C130.034 125.034 130.067 125.067 130.102 125.101M158 137.5C157.711 137.33 157.419 137.157 157.124 136.982M34 119.5C36.3634 119.5 38.5807 119.588 40.6583 119.749M34 119.5C36.2134 119.5 38.4554 119.815 40.6583 119.749M40.6583 119.749C41.4449 119.725 42.2265 119.653 43 119.5C50 122 48 118.5 53 117.5C54.7065 119.491 54.9569 120.997 54.8556 122.477C54.7788 123.599 54.5 124.707 54.5 126C57.6249 127.082 60.4038 126.093 61.5 125C65.3775 127.035 66.1517 128.945 67 130.5C71.7585 133.255 79.3789 131.841 86.0073 129.499C86.1697 129.577 86.334 129.657 86.5 129.74C88.263 129 94.954 132.282 96.5 131.5C97.9778 130.752 97.8303 126.601 98.5729 125.028C98.6899 124.78 98.829 124.596 99 124.5C102.626 123.694 105.159 124.836 107.933 125.754C108.602 125.975 109.285 126.183 110 126.348C117.41 129.698 120.954 134.401 121.467 138.717C121.819 141.682 120.74 144.464 118.5 146.5C118.905 147.513 119.151 148.261 119.431 148.834C119.841 149.674 120.326 150.135 121.5 150.5C125.975 151.89 130.828 152.804 135.353 153.402C143.525 155.59 144.861 155.538 144 155C152.112 157.453 156.391 155.478 158.42 151.868C160.108 150.216 160.353 147.961 159.982 145.381C160.064 142.621 159.619 139.787 159 137.5C158.424 137.346 157.795 137.173 157.124 136.982M157.124 136.982C152.303 134.119 146.638 130.586 141 128.5C136.476 128.911 133.399 127.725 131.259 126.1M131.259 126.1C130.849 125.781 130.476 125.461 130.144 125.142M131.259 126.1C130.855 125.794 130.485 125.472 130.144 125.142M130.144 125.142L130.105 125.103M130.144 125.142C130.131 125.129 130.118 125.116 130.105 125.103M130.105 125.103L130.102 125.101" stroke="white"/>
</svg>
