<svg width="306" height="150" viewBox="0 0 306 150" fill="none" xmlns="http://www.w3.org/2000/svg">
<path d="M85 15C75.4 3 57.6667 1 50 1.5C47.1667 3.16667 41.1 6.8 39.5 8C37.5 9.5 29.1037 8 25.8018 8C22.5 8 16.5 4 12.5 9.5C8.5 15 12 20 8.49999 22.5C4.99999 25 -0.500005 28 1.99999 33C3.99999 37 11.8333 40.6667 15.5 42C18.6667 40.3333 25.8 37 29 37C33 37 39 37 44.5 35C50 33 63.5 32 68.5 37C72.5 41 77.5 43.6667 79.5 44.5C83.3333 44.6667 91.5 44.4 93.5 42C95.5 39.6 105.667 44 110.5 46.5L107.5 52.5L110.5 56L107.5 62.5V67.5L105 72.5L107.5 80L104 84.5L105 93L100.5 100.5L103 108.5L98.5 114.409C113.174 117.225 125.63 125.958 132.5 133C150.5 127.8 156.333 135.167 157 139.5C171.8 148.3 175.833 149.5 176 149L170.5 127.5L176 121L189.5 124.182H203L200 116L189.5 108.5L194.05 96L189.5 84.5L207.5 74.5C216.167 77.8333 232.9 81.3 230.5 68.5C228.1 55.7 235.167 47.1667 239 44.5C243.833 42.1667 255.9 38.9 265.5 44.5C275.1 50.1 295.914 48.1667 303.5 46.5C305.25 42.4072 305.5 41.5 305.5 37.5C303.9 25.5 282.167 22.5 271.5 22.5C257.9 22.5 244 6.5 237 1L233.5 4L215.5 15C204.37 11.7687 200.717 13.6935 197.32 17.4423C196.275 18.5948 195.255 19.9197 194.05 21.3202C193.842 21.5616 193.628 21.8053 193.408 22.0508C180.281 16.7727 168.462 16.4979 159.62 17.9677C153.431 18.9964 148.701 20.8795 146 22.5C110.8 28.5 90.6666 20 85 15Z" fill="#5F23D7" fill-opacity="0.5"/>
<path d="M193 22.5C193.139 22.3497 193.275 22.1999 193.408 22.0508M193.408 22.0508C180.281 16.7727 168.462 16.4979 159.62 17.9677C153.431 18.9964 148.701 20.8795 146 22.5C110.8 28.5 90.6666 20 85 15C75.4 3 57.6667 1 50 1.5C47.1667 3.16667 41.1 6.8 39.5 8C37.5 9.5 29.1037 8 25.8018 8C22.5 8 16.5 4 12.5 9.5C8.5 15 12 20 8.49999 22.5C4.99999 25 -0.500005 28 1.99999 33C3.99999 37 11.8333 40.6667 15.5 42C18.6667 40.3333 25.8 37 29 37C33 37 39 37 44.5 35C50 33 63.5 32 68.5 37C72.5 41 77.5 43.6667 79.5 44.5C83.3333 44.6667 91.5 44.4 93.5 42C95.5 39.6 105.667 44 110.5 46.5L107.5 52.5L110.5 56L107.5 62.5V67.5L105 72.5L107.5 80L104 84.5L105 93L100.5 100.5L103 108.5L98.5 114.409C113.174 117.225 125.629 125.958 132.5 133C150.5 127.8 156.333 135.167 157 139.5C171.8 148.3 175.833 149.5 176 149L170.5 127.5L176 121L189.5 124.182H203L200 116L189.5 108.5L194.05 96L189.5 84.5L207.5 74.5C216.167 77.8333 232.9 81.3 230.5 68.5C228.1 55.7 235.167 47.1667 239 44.5C243.833 42.1667 255.9 38.9 265.5 44.5C275.1 50.1 295.914 48.1667 303.5 46.5C305.25 42.4072 305.5 41.5 305.5 37.5C303.9 25.5 282.167 22.5 271.5 22.5C257.9 22.5 244 6.5 237 1L233.5 4L215.5 15C204.37 11.7687 200.717 13.6935 197.32 17.4423C196.275 18.5948 195.255 19.9197 194.05 21.3202C193.842 21.5616 193.628 21.8053 193.408 22.0508Z" stroke="white"/>
</svg>
